{"accessors" : [{"bufferView" : 0, "byteOffset" : 0, "componentType" : 5123, "count" : 528, "type" : "SCALAR", "max" : [527], "min" : [0]}, {"bufferView" : 1, "byteOffset" : 0, "componentType" : 5126, "count" : 528, "type" : "VEC3", "max" : [0.594642698764801, 0.6267600655555725, -0.0059961979277431965], "min" : [-0.5944638252258301, -0.5899537801742554, -0.022790247574448586], "name" : "POSITION"}, {"bufferView" : 1, "byteOffset" : 12, "componentType" : 5126, "count" : 528, "type" : "VEC3", "max" : [0.9358718395233154, 0.9814721345901489, 1.0000044107437134], "min" : [-0.9860479831695557, -0.9864233732223511, -1.0000044107437134], "name" : "NORMAL"}, {"bufferView" : 1, "byteOffset" : 24, "componentType" : 5126, "count" : 528, "type" : "VEC2", "max" : [0.4829505383968353, -0.21437311172485352], "min" : [0.4666033983230591, -0.29593104124069214], "name" : "TEXCOORD_0"}, {"bufferView" : 0, "byteOffset" : 1056, "componentType" : 5123, "count" : 6, "type" : "SCALAR", "max" : [5], "min" : [0]}, {"bufferView" : 2, "byteOffset" : 0, "componentType" : 5126, "count" : 6, "type" : "VEC3", "max" : [0.5, 0.5, -0.01298352237790823], "min" : [-0.5, -0.5, -0.012983943335711956], "name" : "POSITION"}, {"bufferView" : 2, "byteOffset" : 12, "componentType" : 5126, "count" : 6, "type" : "VEC3", "max" : [3.8929454149183584E-07, -3.166510609275974E-08, -1.0000044107437134], "min" : [3.8929454149183584E-07, -3.166510609275974E-08, -1.0000044107437134], "name" : "NORMAL"}, {"bufferView" : 2, "byteOffset" : 24, "componentType" : 5126, "count" : 6, "type" : "VEC2", "max" : [1, -0], "min" : [0, -1], "name" : "TEXCOORD_0"}, {"bufferView" : 0, "byteOffset" : 1068, "componentType" : 5123, "count" : 6, "type" : "SCALAR", "max" : [5], "min" : [0]}, {"bufferView" : 3, "byteOffset" : 0, "componentType" : 5126, "count" : 6, "type" : "VEC3", "max" : [0.5, 0.5, -0.00831963773816824], "min" : [-0.5, -0.5, -0.00832005962729454], "name" : "POSITION"}, {"bufferView" : 3, "byteOffset" : 12, "componentType" : 5126, "count" : 6, "type" : "VEC3", "max" : [3.8929454149183584E-07, -3.25964322200889E-08, -1.0000044107437134], "min" : [3.8929454149183584E-07, -3.25964322200889E-08, -1.0000044107437134], "name" : "NORMAL"}, {"bufferView" : 3, "byteOffset" : 24, "componentType" : 5126, "count" : 6, "type" : "VEC2", "max" : [0.9716132879257202, -0.19040687382221222], "min" : [0.9512521028518677, -0.21076808869838715], "name" : "TEXCOORD_0"}], "asset" : {"generator" : "Aspose.3D 22.1", "version" : "2.0"}, "buffers" : [{"uri" : "data:application/octet-stream;base64,", "byteLength" : 18376}], "bufferViews" : [{"buffer" : 0, "byteOffset" : 0, "byteLength" : 1080, "target" : 34963}, {"buffer" : 0, "byteOffset" : 1084, "byteLength" : 16896, "byteStride" : 32, "target" : 34962}, {"buffer" : 0, "byteOffset" : 17984, "byteLength" : 192, "byteStride" : 32, "target" : 34962}, {"buffer" : 0, "byteOffset" : 18180, "byteLength" : 192, "byteStride" : 32, "target" : 34962}], "images" : [{"uri" : "/Users/pato/Documents/GitHub/explorer/unity-client/Assets/Scripts/MainScripts/DCL/Components/LoadableShapes/NFTShape/Meshes/Tapper.fbm/Genesis_TX.png"}], "materials" : [{"name" : "", "pbrMetallicRoughness" : {"baseColorFactor" : [0.800000011920929, 0.800000011920929, 0.800000011920929, 1], "baseColorTexture" : {"index" : 0, "texCoord" : 0}, "metallicFactor" : 0, "roughnessFactor" : 0}, "emissiveFactor" : [0.800000011920929, 0.800000011920929, 0.800000011920929], "alphaMode" : "OPAQUE", "doubleSided" : false}, {"name" : "", "pbrMetallicRoughness" : {"baseColorFactor" : [0.800000011920929, 0.800000011920929, 0.800000011920929, 1], "metallicFactor" : 0, "roughnessFactor" : 0}, "emissiveFactor" : [0.800000011920929, 0.800000011920929, 0.800000011920929], "alphaMode" : "OPAQUE", "doubleSided" : false}, {"name" : "", "pbrMetallicRoughness" : {"baseColorFactor" : [0.800000011920929, 0.800000011920929, 0.800000011920929, 1], "metallicFactor" : 0, "roughnessFactor" : 0}, "emissiveFactor" : [0.800000011920929, 0.800000011920929, 0.800000011920929], "alphaMode" : "OPAQUE", "doubleSided" : false}], "meshes" : [{"primitives" : [{"attributes" : {"POSITION" : 1, "NORMAL" : 2, "TEXCOORD_0" : 3}, "indices" : 0, "material" : 0, "mode" : 4}, {"attributes" : {"POSITION" : 5, "NORMAL" : 6, "TEXCOORD_0" : 7}, "indices" : 4, "material" : 1, "mode" : 4}, {"attributes" : {"POSITION" : 9, "NORMAL" : 10, "TEXCOORD_0" : 11}, "indices" : 8, "material" : 2, "mode" : 4}], "name" : "Cube.038"}], "nodes" : [{"matrix" : [100, 0, 0, 0, 0, -1.6292067961387602E-05, -99.99999999999868, 0, 0, 99.99999999999868, -1.6292067961387602E-05, 0, 0, 0, 0, 1], "mesh" : 0, "name" : "PF_Tapper"}], "samplers" : [{"magFilter" : 9729, "minFilter" : 9729, "wrapS" : 10497, "wrapT" : 10497}], "scene" : 0, "scenes" : [{"nodes" : [0]}], "textures" : [{"sampler" : 0, "source" : 0}]}