{"accessors" : [{"bufferView" : 0, "byteOffset" : 0, "componentType" : 5123, "count" : 6, "type" : "SCALAR", "max" : [5], "min" : [0]}, {"bufferView" : 1, "byteOffset" : 0, "componentType" : 5126, "count" : 6, "type" : "VEC3", "max" : [0.5, 0.5, -0.020967936143279076], "min" : [-0.5, -0.5, -0.020968357101082802], "name" : "POSITION"}, {"bufferView" : 1, "byteOffset" : 12, "componentType" : 5126, "count" : 6, "type" : "VEC3", "max" : [3.874318963426049E-07, -3.166510609275974E-08, -1.0000044107437134], "min" : [3.874318963426049E-07, -3.166510609275974E-08, -1.0000044107437134], "name" : "NORMAL"}, {"bufferView" : 1, "byteOffset" : 24, "componentType" : 5126, "count" : 6, "type" : "VEC2", "max" : [1, -0], "min" : [0, -1], "name" : "TEXCOORD_0"}, {"bufferView" : 0, "byteOffset" : 12, "componentType" : 5123, "count" : 2478, "type" : "SCALAR", "max" : [2477], "min" : [0]}, {"bufferView" : 2, "byteOffset" : 0, "componentType" : 5126, "count" : 2478, "type" : "VEC3", "max" : [0.5874363780021667, 0.55379319190979, 0.04399174451828003], "min" : [-0.5737400054931641, -0.5664463043212891, -0.07037059217691422], "name" : "POSITION"}, {"bufferView" : 2, "byteOffset" : 12, "componentType" : 5126, "count" : 2478, "type" : "VEC3", "max" : [0.9997938871383667, 0.9991330504417419, 0.9998340606689453], "min" : [-0.9976429343223572, -0.9996087551116943, -0.9642941355705261], "name" : "NORMAL"}, {"bufferView" : 2, "byteOffset" : 24, "componentType" : 5126, "count" : 2478, "type" : "VEC2", "max" : [0.5758837461471558, -0.2520986795425415], "min" : [0.13840609788894653, -0.3299650251865387], "name" : "TEXCOORD_0"}], "asset" : {"generator" : "Aspose.3D 22.1", "version" : "2.0"}, "buffers" : [{"uri" : "data:application/octet-stream;base64,", "byteLength" : 84468}], "bufferViews" : [{"buffer" : 0, "byteOffset" : 0, "byteLength" : 4968, "target" : 34963}, {"buffer" : 0, "byteOffset" : 4972, "byteLength" : 192, "byteStride" : 32, "target" : 34962}, {"buffer" : 0, "byteOffset" : 5168, "byteLength" : 79296, "byteStride" : 32, "target" : 34962}], "images" : [{"uri" : "/Users/pato/Documents/GitHub/explorer/unity-client/Assets/Scripts/MainScripts/DCL/Components/LoadableShapes/NFTShape/Meshes/WoodSticks.fbm/Genesis_TX.png"}], "materials" : [{"name" : "", "pbrMetallicRoughness" : {"baseColorFactor" : [0.800000011920929, 0.800000011920929, 0.800000011920929, 1], "metallicFactor" : 0, "roughnessFactor" : 0}, "emissiveFactor" : [0.800000011920929, 0.800000011920929, 0.800000011920929], "alphaMode" : "OPAQUE", "doubleSided" : false}, {"name" : "", "pbrMetallicRoughness" : {"baseColorFactor" : [0.800000011920929, 0.800000011920929, 0.800000011920929, 1], "baseColorTexture" : {"index" : 0, "texCoord" : 0}, "metallicFactor" : 0, "roughnessFactor" : 0}, "emissiveFactor" : [0.800000011920929, 0.800000011920929, 0.800000011920929], "alphaMode" : "OPAQUE", "doubleSided" : false}], "meshes" : [{"primitives" : [{"attributes" : {"POSITION" : 1, "NORMAL" : 2, "TEXCOORD_0" : 3}, "indices" : 0, "material" : 0, "mode" : 4}, {"attributes" : {"POSITION" : 5, "NORMAL" : 6, "TEXCOORD_0" : 7}, "indices" : 4, "material" : 1, "mode" : 4}], "name" : "Cube.041"}], "nodes" : [{"matrix" : [100, 0, 0, 0, 0, -1.6292067961387602E-05, -99.99999999999868, 0, 0, 99.99999999999868, -1.6292067961387602E-05, 0, 0, 0, 0, 1], "mesh" : 0, "name" : "PF_WoodSticks"}], "samplers" : [{"magFilter" : 9729, "minFilter" : 9729, "wrapS" : 10497, "wrapT" : 10497}], "scene" : 0, "scenes" : [{"nodes" : [0]}], "textures" : [{"sampler" : 0, "source" : 0}]}