<?xml version="1.0" encoding="UTF-8" standalone="no"?>
<svg
   id="SvgjsSvg1001"
   width="26"
   height="26"
   version="1.1"
   sodipodi:docname="crosshairs-solid.svg"
   inkscape:version="1.1 (c68e22c387, 2021-05-23)"
   xmlns:inkscape="http://www.inkscape.org/namespaces/inkscape"
   xmlns:sodipodi="http://sodipodi.sourceforge.net/DTD/sodipodi-0.dtd"
   xmlns="http://www.w3.org/2000/svg"
   xmlns:svg="http://www.w3.org/2000/svg">
  <sodipodi:namedview
     id="namedview9"
     pagecolor="#ffffff"
     bordercolor="#666666"
     borderopacity="1.0"
     inkscape:pageshadow="2"
     inkscape:pageopacity="0.0"
     inkscape:pagecheckerboard="0"
     showgrid="false"
     inkscape:zoom="2.2361111"
     inkscape:cx="140.64596"
     inkscape:cy="140.64596"
     inkscape:window-width="2560"
     inkscape:window-height="1017"
     inkscape:window-x="1672"
     inkscape:window-y="-8"
     inkscape:window-maximized="1"
     inkscape:current-layer="SvgjsSvg1001" />
  <defs
     id="SvgjsDefs1002" />
  <g
     id="SvgjsG1008"
     transform="translate(-3,-3)">
    <svg
       viewBox="0 0 32 32"
       width="288"
       height="288"
       version="1.1"
       id="svg5">
      <path
         d="M 15,3 V 5.0625 C 9.734375,5.539063 5.539063,9.734375 5.0625,15 H 3 v 2 H 5.0625 C 5.539063,22.265625 9.734375,26.460938 15,26.9375 V 29 h 2 V 26.9375 C 22.265625,26.460938 26.460938,22.265625 26.9375,17 H 29 V 15 H 26.9375 C 26.460938,9.734375 22.265625,5.539063 17,5.0625 V 3 Z m 0,4.03125 V 9 h 2 V 7.03125 C 21.191406,7.484375 24.515625,10.808594 24.96875,15 H 23 v 2 h 1.96875 C 24.515625,21.191406 21.191406,24.515625 17,24.96875 V 23 h -2 v 1.96875 C 10.808594,24.515625 7.484375,21.191406 7.03125,17 H 9 V 15 H 7.03125 C 7.484375,10.808594 10.808594,7.484375 15,7.03125 Z"
         fill="#ffffff"
         class="color000 svgShape"
         id="path3" />
    </svg>
  </g>
</svg>
